PathFileType	4	(X/Y/Z)	s08c0202.trc
DataRate	CameraRate	NumFrames	NumMarkers	Units	OrigDataRate	OrigDataStartFrame	OrigNumFrames
200	200	4	50	mm	200	500	2000
Frame#	Time	racr			lacr			c7			jug			rlel			rdr			llel			ldr			s2			lic			ric			lasi			rasi			rpsi			lpsi			rgt			lgt			rth1			rth2			rth3			rth4			rlfc			rmfc			rsh1			rsh2			rsh3			rsh4			rlmal			rmmal			rcal			rtoe			rmt5			lth1			lth2			lth4			lth3			llfc			lmfc			llmal			lmmal			lcal			lmt5			lsh1			lsh2			lsh3			lsh4			ltoe			SBIKE			LBIKE			RBIKE			
		X1	Y1	Z1	X2	Y2	Z2	X3	Y3	Z3	X4	Y4	Z4	X5	Y5	Z5	X6	Y6	Z6	X7	Y7	Z7	X8	Y8	Z8	X9	Y9	Z9	X10	Y10	Z10	X11	Y11	Z11	X12	Y12	Z12	X13	Y13	Z13	X14	Y14	Z14	X15	Y15	Z15	X16	Y16	Z16	X17	Y17	Z17	X18	Y18	Z18	X19	Y19	Z19	X20	Y20	Z20	X21	Y21	Z21	X22	Y22	Z22	X23	Y23	Z23	X24	Y24	Z24	X25	Y25	Z25	X26	Y26	Z26	X27	Y27	Z27	X28	Y28	Z28	X29	Y29	Z29	X30	Y30	Z30	X31	Y31	Z31	X32	Y32	Z32	X33	Y33	Z33	X34	Y34	Z34	X35	Y35	Z35	X36	Y36	Z36	X37	Y37	Z37	X38	Y38	Z38	X39	Y39	Z39	X40	Y40	Z40	X41	Y41	Z41	X42	Y42	Z42	X43	Y43	Z43	X44	Y44	Z44	X45	Y45	Z45	X46	Y46	Z46	X47	Y47	Z47	X48	Y48	Z48	X49	Y49	Z49	X50	Y50	Z50	
500	2.5000	554.085785	1367.456405	-124.566588	540.223001	1305.190992	-480.252995	529.231217	1434.638907	-319.288754	482.549645	1284.924676	-313.555606	535.482404	1134.578071	17.013212	715.937724	925.367033	-79.463792	494.803891	1029.683004	-537.766462	727.905655	931.365088	-438.880399	-18.500876	1225.587390	-233.779159	131.846368	1199.472104	-383.265433	149.508188	1239.690999	-71.692459	167.645928	1169.434792	-341.835683	161.804479	1172.216654	-103.482466	14.091272	1269.344846	-182.761491	13.921664	1264.025270	-277.517870	64.540882	1129.228991	-29.244401	89.588662	1100.756267	-411.366377	194.984174	1011.515425	-28.562616	273.505438	969.499045	-33.753673	318.145650	894.839637	-38.354629	296.345170	994.328620	-47.811817	386.574903	804.726083	-51.952659	369.911346	795.403556	-164.971093	284.955180	720.488930	-23.788225	244.495802	643.503078	-48.801838	172.706344	596.864417	-55.353368	269.042059	629.009693	-76.574439	87.648938	515.568935	-64.346560	114.117318	522.390672	-150.494919	9.391661	537.637405	-111.278432	236.898633	342.207349	-107.337331	147.427780	376.264803	-41.276723	167.336523	989.417477	-418.764888	235.888003	935.252886	-414.214867	263.913778	956.408715	-404.602075	268.434717	852.533614	-412.048186	330.845927	741.099560	-390.436676	323.990121	711.279832	-288.523614	305.278954	321.666332	-407.156337	338.936632	352.682748	-334.235473	240.371287	292.079174	-373.010908	452.118801	245.420316	-423.212589	324.706980	611.573286	-420.778502	340.313467	528.301165	-405.960109	316.213772	443.537438	-410.889556	358.532784	529.937582	-370.494885	529.188388	281.960426	-352.085212	-190.547027	920.414912	-239.655783	11.033494	79.846338	-426.944065	11.078339	80.058744	-28.528316	
501	2.5050	553.471998	1369.858820	-121.967705	541.040443	1309.700862	-478.725346	528.809296	1438.839070	-317.032352	482.779813	1288.888851	-312.694014	535.608222	1135.149219	16.900857	717.470407	926.277607	-78.644936	496.305520	1034.154807	-537.408020	728.274446	932.272856	-438.371372	-17.614383	1225.107448	-235.469814	133.902448	1198.819501	-384.424814	149.143273	1241.524939	-73.213356	169.516288	1169.290561	-342.683688	162.424565	1174.251919	-104.793183	14.457758	1269.035963	-184.847449	14.638065	1263.157884	-279.469571	65.788598	1130.363447	-29.968357	90.873045	1099.001319	-411.800965	197.382787	1013.937917	-28.561883	276.397079	972.954435	-33.484209	322.046359	898.998345	-38.111667	298.941156	997.903863	-47.503224	391.407809	809.653861	-51.878856	374.821002	799.681208	-163.799317	289.526206	726.051033	-23.777957	248.559570	649.214486	-48.783154	176.526600	603.028849	-55.304779	273.112323	634.535823	-76.497881	91.082536	522.253203	-64.435811	117.587527	528.921977	-150.488812	12.793534	544.429757	-111.189568	240.009643	348.643083	-107.481554	150.612783	382.831054	-41.363201	167.401616	986.958785	-419.641486	235.085869	931.711811	-415.351662	263.524468	952.459265	-405.599766	266.309435	848.595473	-413.381470	327.190167	736.172173	-391.651538	320.301444	706.644258	-289.868896	303.521118	316.795462	-407.492861	337.337155	347.766776	-334.671562	238.731458	288.519702	-373.337434	449.818605	238.494203	-423.007133	321.261938	606.641121	-422.015913	337.378299	523.576367	-407.476633	313.827654	438.512793	-411.639132	355.716048	525.336918	-371.743934	527.337606	273.877859	-351.876937	-190.583265	920.457465	-239.606259	11.052359	79.839515	-426.908165	11.065582	80.085297	-28.524491	
502	2.5100	552.905794	1372.094980	-119.299468	541.688217	1314.279209	-476.330018	528.135763	1442.700212	-314.421207	483.079672	1292.434919	-311.407037	535.755575	1135.512047	16.946158	719.183505	927.275328	-77.730910	497.840522	1038.950053	-537.316202	728.574861	933.040937	-437.694501	-16.913528	1224.500496	-237.001563	136.124630	1198.649495	-385.702123	148.683477	1243.288135	-74.645166	171.227622	1168.826124	-342.816915	163.036378	1176.177748	-105.848900	14.821093	1268.659806	-186.686874	15.380476	1262.343568	-281.369667	67.011251	1131.434791	-30.775189	92.114412	1097.362604	-412.205457	199.677399	1016.279903	-28.547421	279.280808	976.373756	-33.173063	326.008008	902.956438	-38.053735	301.466139	1001.647866	-47.008877	396.286750	814.646062	-51.966862	379.603667	803.955511	-162.592287	294.108620	731.655107	-23.983675	252.748569	654.901398	-48.856356	180.396002	609.272017	-55.304325	276.848417	640.116842	-76.708621	94.582594	528.714250	-64.637009	121.155771	535.424716	-150.606755	16.253358	551.013674	-111.266098	243.249336	355.006572	-107.675195	153.997869	389.239608	-41.561288	167.409561	984.568737	-420.602912	234.241042	928.267332	-416.421961	262.998967	948.507336	-406.808374	264.059969	844.675657	-414.575382	323.361650	731.425696	-392.990180	316.379188	702.422327	-291.103098	301.613585	312.105328	-407.938336	335.734004	343.094434	-335.406342	236.857589	285.116451	-373.749969	447.287565	231.734475	-422.890885	317.537433	601.699540	-423.213876	334.317879	518.757855	-408.189804	311.224791	433.638798	-412.511021	352.891627	520.946857	-373.003230	525.130725	265.925128	-351.519006	-190.427783	920.546285	-239.501323	11.081289	79.840519	-426.915458	11.111601	80.096250	-28.542882	
503	2.5150	552.384587	1374.126139	-116.677615	542.363169	1319.244676	-474.647259	527.551568	1446.912626	-311.870446	483.337372	1296.385745	-310.536561	535.948142	1135.749437	17.190008	721.040540	928.374184	-76.727277	499.591833	1043.981522	-537.222640	728.835507	933.847513	-437.005827	-16.379170	1224.217855	-238.205930	138.287096	1198.344962	-386.897343	148.164821	1244.802150	-75.998262	172.937909	1168.402671	-343.215552	163.604197	1177.954145	-106.989345	15.197729	1268.433547	-188.554431	16.051057	1261.520403	-283.221358	68.156387	1132.388634	-31.562320	93.279410	1095.732085	-412.635573	201.886173	1018.607011	-28.565770	282.066752	979.726497	-32.840204	329.860210	907.015683	-37.739084	303.941596	1005.371638	-46.565975	401.077620	819.662152	-52.176198	384.207181	808.200133	-161.311464	298.712660	737.146260	-24.286510	256.938425	660.636546	-49.051651	184.321935	615.316442	-55.381009	281.031150	645.703529	-76.796270	98.237266	535.014980	-64.918467	124.824146	541.782463	-150.673462	19.775320	557.337284	-111.410578	246.837040	361.427692	-107.874070	157.598265	395.763380	-41.668252	167.321460	982.323678	-421.471512	233.260237	924.904124	-417.529939	262.314640	944.675728	-408.055920	261.512942	840.794095	-415.323044	319.369294	726.844477	-394.290417	312.291548	698.426341	-292.448420	299.449134	307.583777	-408.417884	333.158564	338.701201	-335.566432	234.895954	281.984388	-374.313024	444.527871	224.975701	-422.746246	313.687959	597.099771	-424.547986	331.035675	514.267203	-409.442803	308.388773	429.013523	-413.461910	349.746687	516.672608	-374.431578	522.811360	257.980455	-351.219365	-190.336411	920.578475	-239.588204	11.078901	79.875911	-426.937859	11.104695	80.135850	-28.539055	
